<svg width="20" height="20" viewBox="0 0 20 20" fill="none" xmlns="http://www.w3.org/2000/svg">
<path d="M8.33461 8.43523L5.76146 9.75218C4.88842 10.2014 4.3083 9.91547 1.52262 9.37951L1 9.64495L3.26297 11.0283L2.8092 11.263C2.69433 11.3192 2.75751 11.4723 2.88387 11.457C6.24392 11.064 7.83491 10.5025 7.83491 10.5025L15.227 6.70997C15.227 6.70997 17.7772 5.40328 16.7606 5.0715C15.6348 4.70399 13.3086 5.87285 13.3086 5.87285L10.4598 7.33274L5.74428 5.86269L5.45709 6.01068L8.83431 8.77724" fill="black"/>
<path d="M8.33461 8.43523L5.76146 9.75218C4.88842 10.2014 4.3083 9.91547 1.52262 9.37951L1 9.64495L3.26297 11.0283L2.8092 11.263C2.69433 11.3192 2.75751 11.4723 2.88387 11.457C6.24392 11.064 7.83491 10.5025 7.83491 10.5025L15.227 6.70997C15.227 6.70997 17.7772 5.40328 16.7606 5.0715C15.6348 4.70399 13.3086 5.87285 13.3086 5.87285L10.4598 7.33274L5.74428 5.86269L5.45709 6.01068L8.83431 8.77724" stroke="black" stroke-width="0.5" stroke-miterlimit="10" stroke-linecap="round" stroke-linejoin="round"/>
<path d="M11.6575 8.47635L11.4736 9.94129L11.0371 10.2424L9.98029 9.35939" fill="black"/>
<path d="M11.6575 8.47635L11.4736 9.94129L11.0371 10.2424L9.98029 9.35939" stroke="black" stroke-miterlimit="10" stroke-linecap="round" stroke-linejoin="round"/>
<path d="M1.33313 16H10.4483" stroke="black" stroke-miterlimit="10" stroke-linecap="round" stroke-linejoin="round"/>
</svg>
