<svg width="34" height="15" viewBox="0 0 34 15" fill="none" xmlns="http://www.w3.org/2000/svg">
<path d="M4.13086 10.8895L4.3183 11.3415L4.79024 11.4709C5.99446 11.801 7.94278 12.296 9.88828 12.712C11.8043 13.1217 13.8156 13.477 15.0965 13.4884C17.436 13.5094 24.7268 13.4972 28.0743 13.4885L28.1223 13.4884L28.1701 13.4836C28.6712 13.4341 29.4512 13.2986 30.2243 13.0468C30.9307 12.8167 31.795 12.4386 32.3724 11.8079C32.6008 11.6148 32.8708 11.2915 32.9662 10.8416C33.1002 10.2094 32.8346 9.61707 32.3202 9.18963L31.7248 9.90618L32.3202 9.18963C31.4497 8.46633 30.3798 7.84068 28.1883 7.58337L28.1302 7.57654H28.0717H22.4347L11.2155 1.61687L10.9955 1.5H10.7464H7.77556H5.25032L7.09092 3.22888L11.7195 7.57654H8.39368L5.46159 4.82243L5.17295 4.55131H4.77695H3H1.5028L2.07626 5.93433L4.13086 10.8895Z" fill="black" stroke="white" stroke-width="2"/>
</svg>
